HIERARCHY
ROOT Hips
{
	OFFSET 0.000000 0.000000 0.000000 
	CHANNELS 6 Xposition Yposition Zposition Zrotation Yrotation Xrotation
	JOINT LeftUpLeg
	{
		OFFSET 1.363060 -1.794630 0.839290 
		CHANNELS 3 Zrotation Yrotation Xrotation
		JOINT LeftLeg
		{
			OFFSET 2.448110 -6.726130 0.000000 
			CHANNELS 3 Zrotation Yrotation Xrotation
			JOINT LeftFoot
			{
				OFFSET 2.562200 -7.039590 0.000000 
				CHANNELS 3 Zrotation Yrotation Xrotation
				JOINT LeftToeBase
				{
					OFFSET 0.157640 -0.433110 2.322550 
					CHANNELS 3 Zrotation Yrotation Xrotation
					End Site
					{
						OFFSET 0.000000 0.000000 0.000000 
					}
				}
			}
		}
	}
	JOINT RightUpLeg
	{
		OFFSET -1.305520 -1.794630 0.839290 
		CHANNELS 3 Zrotation Yrotation Xrotation
		JOINT RightLeg
		{
			OFFSET -2.542530 -6.985550 0.000000 
			CHANNELS 3 Zrotation Yrotation Xrotation
			JOINT RightFoot
			{
				OFFSET -2.568260 -7.056230 0.000000 
				CHANNELS 3 Zrotation Yrotation Xrotation
				JOINT RightToeBase
				{
					OFFSET -0.164730 -0.452590 2.363150 
					CHANNELS 3 Zrotation Yrotation Xrotation
					End Site
					{
						OFFSET 0.000000 0.000000 0.000000 
					}
				}
			}
		}
	}
	JOINT Spine
	{
		OFFSET 0.028270 2.035590 -0.193380 
		CHANNELS 3 Zrotation Yrotation Xrotation
		JOINT Spine1
		{
			OFFSET 0.056720 2.048850 -0.042750 
			CHANNELS 3 Zrotation Yrotation Xrotation
			JOINT Neck1
			{
				OFFSET -0.054170 1.746240 0.172020 
				CHANNELS 3 Zrotation Yrotation Xrotation
				JOINT Head
				{
					OFFSET 0.104070 1.761360 -0.123970 
					CHANNELS 3 Zrotation Yrotation Xrotation
					End Site
					{
						OFFSET 0.000000 0.000000 0.000000 
					}
				}
			}
			JOINT LeftArm
			{
				OFFSET 3.362410 1.200890 -0.311210 
				CHANNELS 3 Zrotation Yrotation Xrotation
				JOINT LeftForeArm
				{
					OFFSET 4.983000 -0.000000 -0.000000 
					CHANNELS 3 Zrotation Yrotation Xrotation
					JOINT LeftHand
					{
						OFFSET 3.483560 -0.000000 -0.000000 
						CHANNELS 3 Zrotation Yrotation Xrotation
						JOINT LeftHandIndex1
						{
							OFFSET 0.715260 -0.000000 -0.000000 
							CHANNELS 3 Zrotation Yrotation Xrotation
							End Site
							{
								OFFSET 0.000000 0.000000 0.000000 
							}
						}
					}
				}
			}
			JOINT RightArm
			{
				OFFSET -3.136600 1.374050 -0.404650 
				CHANNELS 3 Zrotation Yrotation Xrotation
				JOINT RightForeArm
				{
					OFFSET -5.241900 -0.000000 -0.000000 
					CHANNELS 3 Zrotation Yrotation Xrotation
					JOINT RightHand
					{
						OFFSET -3.444170 -0.000000 -0.000000 
						CHANNELS 3 Zrotation Yrotation Xrotation
						JOINT RightHandIndex1
						{
							OFFSET -0.622530 -0.000000 -0.000000 
							CHANNELS 3 Zrotation Yrotation Xrotation
							End Site
							{
								OFFSET 0.000000 0.000000 0.000000 
							}
						}
					}
				}
			}
		}
	}
}
MOTION
Frames: 10
Frame Time: 0.041667
8.855050 24.226154 7.502179 -3.089144 1.605249 -7.532852 -6.513988 -4.704373 -24.185208 7.963001 16.676167 53.867470 0.079010 -13.457130 11.298107 0.317300 -3.621000 -10.012800 22.285620 -7.665707 -9.323416 -2.133780 -11.165504 29.865912 -0.645360 2.977866 -3.151200 -0.121200 -2.244300 6.181400 1.545360 7.706710 -0.588594 -3.063645 4.092136 0.145999 1.939168 -3.522962 26.939079 2.034600 -2.586400 15.326100 -94.082093 20.438696 13.343769 16.024717 -27.125150 -3.905801 0.353601 0.375876 -1.178588 -7.125000 0.000000 0.000000 69.980910 -2.443935 30.054992 -41.401136 47.949151 -20.373494 0.104515 0.041485 -12.857620 7.125000 0.000000 0.000000 
8.868872 24.200931 7.595808 -3.150365 0.866694 -7.184974 -6.591267 -4.071204 -23.172223 7.363204 16.290176 51.836078 0.161868 -12.833891 12.014631 0.233700 -3.111500 -8.589400 22.417016 -7.209656 -9.433892 -2.226520 -11.329873 30.389173 -0.687396 3.253611 -3.683111 -0.097300 -2.011300 5.537000 1.533388 7.613616 -0.695777 -3.166414 4.045247 0.143583 1.693865 -3.317204 27.034883 1.816700 -2.461700 15.331700 -93.517670 20.739672 14.318090 15.959795 -27.052979 -3.878455 0.354461 0.373697 -1.358939 -7.125000 0.000000 0.000000 70.160810 -2.331515 29.768288 -41.289594 47.886407 -20.288911 0.101556 0.036266 -13.204050 7.125000 0.000000 0.000000 
8.879970 24.177523 7.689033 -3.092633 -0.031407 -6.971905 -6.731258 -3.351895 -22.183723 6.917591 15.993393 50.308787 0.224085 -12.520213 12.746877 0.090800 -1.943000 -5.348100 22.458911 -6.606584 -9.032579 -2.210896 -11.317991 30.324908 -0.714857 3.432228 -3.943349 -0.086900 -1.901900 5.234600 1.516204 7.540125 -0.766822 -3.219913 4.008135 0.151810 1.482798 -3.045089 27.176965 1.615200 -2.306000 15.417800 -92.937750 21.021084 15.343164 16.032265 -27.157100 -3.907997 0.348279 0.381826 -1.883585 -7.125000 0.000000 0.000000 70.343144 -2.138736 29.485306 -41.170383 47.813846 -20.197219 0.096675 0.033584 -13.578668 7.125000 0.000000 0.000000 
8.886932 24.151796 7.777617 -3.199799 -1.079363 -6.892218 -6.670005 -2.453488 -21.037058 6.450428 15.657554 48.659648 0.249840 -12.840904 13.098768 0.061400 -1.598700 -4.397700 22.714131 -5.859225 -8.563892 -2.249259 -11.401129 30.558855 -0.757622 3.695531 -4.435784 -0.090700 -1.942000 5.345400 1.541303 7.483749 -0.793651 -3.205409 3.980583 0.198081 1.475178 -2.703171 27.362254 1.570100 -2.137300 15.577600 -92.469557 21.077658 15.907875 16.031460 -27.157597 -3.904001 0.335099 0.387243 -1.826301 -7.125000 0.000000 0.000000 70.528744 -1.857890 29.099623 -41.153414 47.790107 -20.183530 0.093838 0.038362 -13.745371 7.125000 0.000000 0.000000 
8.857774 24.064019 7.876189 -7.835268 -3.434163 -8.358864 -1.354301 -0.355777 -18.430441 6.150029 15.315559 47.262843 0.302176 -13.859460 13.892342 0.082600 -1.854300 -5.103100 28.710227 -4.018636 -5.861949 -2.261802 -11.516511 30.734534 -0.630090 2.464783 -5.534466 -0.085800 -1.889000 5.199100 2.246392 7.882687 -0.642707 -3.702863 4.186640 0.061626 1.555816 -2.290140 27.519949 1.657600 -1.985600 15.673500 -92.156358 20.951182 16.156911 15.763556 -26.770503 -3.780233 0.325432 0.382907 -1.510242 -7.125000 0.000000 0.000000 70.570869 -1.696575 28.653303 -41.215921 47.808928 -20.233485 0.093310 0.045190 -13.960410 7.125000 0.000000 0.000000 
8.919924 24.102863 7.953674 -3.737359 -2.863922 -6.561393 -6.295145 -0.933448 -18.891838 5.573491 14.959661 45.433979 0.326055 -12.740846 13.285041 0.026000 -1.040400 -2.859900 23.533123 -4.734144 -8.092716 -2.367225 -11.619396 31.219744 -0.856672 4.343588 -5.320990 -0.086000 -1.892000 5.207300 1.703490 7.129020 -0.879303 -2.999852 3.796936 0.257962 1.524449 -1.858467 27.610555 1.687900 -1.853000 15.749800 -91.955411 20.781608 16.260678 15.397474 -26.335257 -3.635802 0.319366 0.388394 -1.368623 -7.125000 0.000000 0.000000 70.543500 -1.459281 28.505618 -41.074166 47.720673 -20.117830 0.108269 0.044954 -14.691944 7.125000 0.000000 0.000000 
8.902368 24.099231 8.031664 -2.030762 -2.435529 -5.482769 -8.499032 -1.239432 -18.773103 5.150355 14.630922 43.941070 0.327874 -12.695747 13.224428 0.065200 1.647300 4.531800 21.335882 -5.609243 -9.441221 -2.469111 -11.721250 31.656910 -1.011170 5.569221 -5.601341 -0.097300 -2.011600 5.537800 1.610880 6.390401 -1.051311 -1.976249 3.387830 0.314134 1.373633 -1.397628 27.713651 1.608400 -1.693800 15.868500 -91.853003 20.724651 16.269275 15.303621 -26.270243 -3.609960 0.315484 0.402676 -1.474298 -7.125000 0.000000 0.000000 70.420658 -1.039186 28.562372 -40.751511 47.512643 -19.849812 0.130774 0.040217 -15.691919 7.125000 0.000000 0.000000 
8.902469 24.080666 8.110462 -2.101247 -3.003498 -5.134904 -8.598918 -0.479654 -17.953078 4.752291 14.257530 42.369912 0.286049 -13.708093 12.664162 0.336400 3.727100 10.310200 21.439814 -5.301790 -9.740667 -2.628287 -11.965164 32.466690 -1.089745 6.013691 -6.347344 -0.106700 -2.106700 5.800500 1.760199 5.967928 -1.090832 -1.423126 3.162901 0.414691 1.329654 -0.778459 27.815520 1.643900 -1.491600 15.986800 -92.003715 20.608849 15.980795 15.283347 -26.272491 -3.608249 0.311903 0.412124 -1.552898 -7.125000 0.000000 0.000000 70.084205 -0.595093 28.403636 -40.557751 47.384631 -19.697225 0.137474 0.039211 -16.063928 7.125000 0.000000 0.000000 
8.904992 24.072999 8.185122 -2.044810 -3.539117 -4.925196 -8.857791 0.338176 -17.155996 4.476126 13.994294 41.223392 0.205786 -14.794744 10.567922 0.347200 3.786000 10.475400 21.369762 -5.171508 -9.828366 -2.723941 -12.105596 32.934848 -1.155748 6.510110 -6.636030 -0.112500 -2.162900 5.955900 1.931827 5.448293 -1.093203 -0.725018 2.885838 0.522958 1.342478 -0.008586 27.880184 1.762500 -1.258500 16.087300 -92.401464 20.369512 15.141418 15.160869 -26.137729 -3.562395 0.293298 0.429898 -1.279979 -7.125000 0.000000 0.000000 69.570069 -0.032636 28.258772 -40.286942 47.209545 -19.490812 0.133911 0.046039 -16.110802 7.125000 0.000000 0.000000 
8.904487 24.063716 8.257260 -2.067932 -3.889256 -4.761360 -9.020253 0.800847 -16.331905 4.238187 13.770940 40.218285 0.208290 -14.932116 7.787528 0.211800 2.963300 8.176500 21.398444 -5.136410 -9.848864 -2.799379 -12.215988 33.300456 -1.201530 6.867770 -6.823394 -0.109900 -2.137400 5.885600 2.157491 4.757220 -1.091982 0.117450 2.517616 0.634148 1.313265 0.935351 28.017993 1.879800 -0.976400 16.279900 -92.931322 20.033699 14.145711 15.062090 -26.039274 -3.527846 0.267023 0.459580 -1.116079 -7.125000 0.000000 0.000000 68.933443 0.799847 28.413370 -39.705111 46.842148 -19.037368 0.136677 0.051488 -16.504646 7.125000 0.000000 0.000000 
